# xmcd
#
# Track frame offsets: 
#        150
#        21637
#        38150
#        55682
#        74250
#        94512
#        113162
#        126095
#        139850
#        156272
#        173442
#        192465
#
# Disc length: 2818 seconds
#
# Revision: 3
# Processed by: cddbd v1.5.2PL0 Copyright (c) Steve Scherf et al.
# Submitted via: ExactAudioCopy v0.99pb5
#
DISCID=a20b000c
DTITLE=Johnny Reid - Born to Roll
DYEAR=2005
DGENRE=Country
TTITLE0=She Calls Me Home
TTITLE1=You Still Own Me
TTITLE2=Sixty to Zero
TTITLE3=Missing an Angel
TTITLE4=I Promise You
TTITLE5=Here I Am
TTITLE6=Gypsy in My Soul
TTITLE7=You Turned It Up
TTITLE8=Wish It Was
TTITLE9=Still Talkin' 'Bout You
TTITLE10=Time Flies
TTITLE11=Born to Roll
EXTD=YEAR: 2005
EXTT0=
EXTT1=
EXTT2=
EXTT3=
EXTT4=
EXTT5=
EXTT6=
EXTT7=
EXTT8=
EXTT9=
EXTT10=
EXTT11=
PLAYORDER=
